<svg width="27" height="27" viewBox="0 0 27 27" fill="none" xmlns="http://www.w3.org/2000/svg">
<rect x="0.479996" y="12.9934" width="3.28322" height="1.69566" rx="0.847829" fill="black"/>
<rect x="23.7168" y="12.9934" width="3.28322" height="1.69566" rx="0.847829" fill="black"/>
<rect x="3.30493" y="5.89788" width="1.69566" height="3.38072" rx="0.847829" transform="rotate(-45 3.30493 5.89788)" fill="black"/>
<rect x="12.8925" y="0.580742" width="1.69566" height="3.28322" rx="0.847829" fill="black"/>
<rect x="20.5846" y="7.09032" width="3.38072" height="1.69566" rx="0.847829" transform="rotate(-45 20.5846 7.09032)" fill="black"/>
<rect x="3.30493" y="21.7806" width="3.38072" height="1.69566" rx="0.847829" transform="rotate(-45 3.30493 21.7806)" fill="black"/>
<rect x="20.5846" y="20.5905" width="1.69566" height="3.38072" rx="0.847829" transform="rotate(-45 20.5846 20.5905)" fill="black"/>
<path fill-rule="evenodd" clip-rule="evenodd" d="M10.6855 22.9849C10.6855 24.0765 11.2678 25.0851 12.2131 25.6309C13.1584 26.1767 14.3231 26.1767 15.2684 25.6309C16.2137 25.0851 16.7961 24.0765 16.7961 22.9849V20.9812H10.6855V22.9849Z" stroke="#202327" stroke-linejoin="round"/>
<path fill-rule="evenodd" clip-rule="evenodd" d="M16.7971 21.0346C16.7886 20.0509 17.1989 19.11 17.9255 18.4468C19.8684 16.7114 20.5396 13.9574 19.613 11.5227C18.6864 9.08792 16.354 7.47702 13.7489 7.47253C11.1438 7.46804 8.80587 9.07088 7.87086 11.5024C6.93586 13.9339 7.59754 16.6902 9.53448 18.4323C10.268 19.0982 10.6846 20.044 10.681 21.0346V21.0545H16.7971V21.0346Z" stroke="#202327" stroke-linejoin="round"/>
<path d="M15.7768 9.78144L12.2008 13.4054L13.6156 14.7898L12.2008 17.9L16.2485 14.3938L14.3931 13.4054L15.7768 9.78144Z" fill="black"/>
</svg>
