<svg width="13" height="24" viewBox="0 0 13 24" fill="none" xmlns="http://www.w3.org/2000/svg">
<path d="M0.878906 2.9559C0.878906 1.85133 1.77434 0.955902 2.87891 0.955902H10.1556C11.2601 0.955902 12.1556 1.85133 12.1556 2.9559V20.9559C12.1556 22.0605 11.2601 22.9559 10.1556 22.9559H2.87891C1.77434 22.9559 0.878906 22.0605 0.878906 20.9559V2.9559Z" stroke="#1A191E"/>
<path d="M8.71962 2.74081H4.57154C3.99431 2.74081 3.52638 2.27287 3.52638 1.69564C3.52638 1.31083 3.21442 0.998871 2.8296 0.998871H10.4616C10.0767 0.998871 9.76478 1.31083 9.76478 1.69564C9.76478 2.27287 9.29685 2.74081 8.71962 2.74081Z" fill="#1A191E"/>
<path d="M8.17184 6.89633L4.35938 10.76L5.86773 12.236L4.35938 15.5518L8.6748 11.8137L6.69668 10.76L8.17184 6.89633Z" fill="black"/>
</svg>
