<svg width="22" height="17" viewBox="0 0 22 17" fill="none" xmlns="http://www.w3.org/2000/svg">
<path d="M3.8856 13.1361C7.68068 9.34106 13.8518 9.34106 17.6469 13.1361" stroke="#202327" stroke-linecap="round" stroke-linejoin="round"/>
<path d="M7 16.0855C8.04777 15.0378 9.44205 14.4603 10.9271 14.4603C12.4121 14.4603 13.8064 15.0378 14.8542 16.0897" stroke="#202327" stroke-linecap="round" stroke-linejoin="round"/>
<path d="M0.89093 10.1372C3.53098 7.4971 7.03731 6.04507 10.7705 6.04507C14.5037 6.04507 18.01 7.4971 20.6501 10.1372" stroke="#202327" stroke-linecap="round" stroke-linejoin="round"/>
<path d="M13.6108 1.08933C13.653 0.978837 13.612 0.853904 13.5125 0.789911C13.4131 0.725918 13.2824 0.740375 13.1993 0.824558L8.82205 5.26059C8.77535 5.30792 8.74943 5.37189 8.75001 5.43837C8.75059 5.50486 8.77763 5.56837 8.82515 5.61487L10.4317 7.18692L8.77244 10.8344C8.72378 10.9413 8.75619 11.0678 8.85031 11.1381C8.94443 11.2085 9.07486 11.2038 9.16368 11.1268L14.1184 6.83498C14.1807 6.78104 14.2124 6.69989 14.2032 6.61803C14.194 6.53616 14.145 6.4641 14.0723 6.42537L11.9958 5.31926L13.6108 1.08933Z" fill="black" stroke="#F7E4D8" stroke-width="0.5" stroke-linejoin="round"/>
</svg>
